<svg xmlns="http://www.w3.org/2000/svg" viewBox="0 0 64 64" width="64" height="64">
  <defs>
    <linearGradient id="grad1" x1="0%" y1="0%" x2="100%" y2="100%">
      <stop offset="0%" style="stop-color:#3b82f6;stop-opacity:1" />
      <stop offset="100%" style="stop-color:#1e40af;stop-opacity:1" />
    </linearGradient>
  </defs>
  
  <!-- Background circle -->
  <circle cx="32" cy="32" r="30" fill="url(#grad1)" />
  
  <!-- Dashboard icon -->
  <g fill="white" fill-opacity="0.95">
    <!-- Bar chart -->
    <rect x="14" y="35" width="5" height="15" rx="1" />
    <rect x="22" y="28" width="5" height="22" rx="1" />
    <rect x="30" y="32" width="5" height="18" rx="1" />
    <rect x="38" y="25" width="5" height="25" rx="1" />
    <rect x="46" y="30" width="5" height="20" rx="1" />
    
    <!-- Trend line -->
    <path d="M 12 22 L 20 18 L 28 20 L 36 15 L 44 17 L 52 14" 
          stroke="white" 
          stroke-width="2" 
          fill="none" 
          stroke-linecap="round"
          stroke-linejoin="round"
          opacity="0.8"/>
    
    <!-- Data points -->
    <circle cx="12" cy="22" r="2" fill="white" />
    <circle cx="20" cy="18" r="2" fill="white" />
    <circle cx="28" cy="20" r="2" fill="white" />
    <circle cx="36" cy="15" r="2" fill="white" />
    <circle cx="44" cy="17" r="2" fill="white" />
    <circle cx="52" cy="14" r="2" fill="white" />
  </g>
</svg>
